<svg id="Layer_1" data-name="Layer 1" xmlns="http://www.w3.org/2000/svg" viewBox="0 0 977.66 232.85"><defs><style>.cls-1{fill:#fff;}</style></defs><polyline class="cls-1" points="0 232.85 43.89 232.85 71.89 232.85 206.19 232.85 222.14 232.85 229.81 232.85 241.22 168.06 239.15 168.06 214.37 168.05 214.37 168.05 204.56 168.06 204.56 168.06 79.61 168.06 83.04 148.82 207.95 148.82 207.95 148.82 208.14 148.82 219.55 84.03 219.4 84.03 218.47 84.03 94.59 84.03 97.66 66.81 220.99 66.81 223.87 66.81 230.47 66.81 231.16 66.82 259.06 66.81 259.59 63.82 270.83 0.01 267.81 0.01 266.61 0.01 264.78 0.01 233.27 0.01 101.85 0.01 51.85 0.01 41.02 0.01"/><polygon class="cls-1" points="848.38 0.01 842.08 0.01 823.89 0.01 813.34 59.87 812.79 63 812.12 66.81 965.89 66.81 977.66 0.01 848.38 0.01"/><polyline class="cls-1" points="736.88 84.03 732.85 84.03 724.83 129.54 723.28 138.32 718.39 166.08 714.58 187.74 706.63 232.85 709.51 232.85 814.45 232.85 936.64 232.85 948.05 168.06 786.44 168.06 789.83 148.82 914.78 148.82 926.2 84.03"/><polygon class="cls-1" points="662.57 0.01 655.21 0.01 594.73 0.01 582.96 66.81 650.8 66.81 662.57 0.01"/><polygon class="cls-1" points="751.75 0.01 748.27 0.01 739.31 0.01 734.68 0.01 676.19 0.01 670.98 0.01 629.96 232.85 698.22 232.85 727.47 66.81 795.28 66.81 807.05 0.01 751.75 0.01"/><polygon class="cls-1" points="579.93 84.03 565.12 168.06 496.41 168.06 475.21 168.06 504.81 0.01 436.93 0.01 407.33 168.06 362.36 168.06 317.41 168.06 347.01 0.01 310.49 0 286.77 0 279.25 0.01 264.45 84.03 227.75 84.03 216.56 148.82 252.97 148.82 238.23 232.85 268.66 232.85 317.25 232.85 350.94 232.85 350.95 232.84 395.91 232.85 395.91 232.85 401.56 232.85 437.73 232.85 479.05 232.85 560.29 232.85 592.94 232.85 621.55 232.85 647.76 84.03 579.93 84.03"/></svg>