<svg id="Layer_1" data-name="Layer 1" xmlns="http://www.w3.org/2000/svg" viewBox="0 0 1043.54 200"><defs><style>.cls-1{fill:#fff;}</style></defs><polygon class="cls-1" points="553.98 124.71 549.34 151.04 549.28 151.04 432.77 151.04 432.51 151.04 437.16 124.71 445.79 75.74 450.51 48.97 450.86 47 459.14 0 406.86 0 400.14 38.06 398.22 48.97 393.5 75.74 384.87 124.71 380.22 151.04 379.97 151.04 263.39 151.04 268.04 124.71 276.67 75.74 281.39 48.97 282.2 44.38 282.18 44.38 290 0 237.71 0 231.46 35.43 229.08 48.97 224.36 75.74 215.72 124.71 211.08 151.04 208.39 166.3 202.45 200 254.74 200 371.59 200 423.88 200 540.65 200 592.93 200 598.21 170.08 601.57 151.04 606.21 124.71 614.85 75.74 562.61 75.74 553.98 124.71"/><circle class="cls-1" cx="595.32" cy="32.23" r="32.22" transform="translate(337.72 569.89) rotate(-67.5)"/><polygon class="cls-1" points="66.02 124.71 156.15 124.71 164.78 75.74 74.65 75.74 79.37 48.97 204.08 48.97 212.71 0 35.27 0 29.03 35.36 28.97 35.35 26.57 48.97 21.85 75.74 13.21 124.71 8.57 151.04 5.9 166.22 5.96 166.23 0 200 177.45 200 186.08 151.04 61.37 151.04 66.02 124.71"/><polygon class="cls-1" points="910.74 48.97 1034.9 48.97 1043.54 0 918.84 0 866.55 0 792.97 0 790.22 0 737.93 0 737.93 0 737.93 0 661.61 0 661.61 0 661.61 0 661.61 0 661.49 0.66 652.71 48.96 652.71 48.97 652.97 48.97 729.04 48.97 729.3 48.97 724.58 75.74 715.95 124.71 711.3 151.04 709.55 160.97 702.67 200 754.96 200 760.26 169.91 760.51 169.95 763.85 151.04 768.49 124.71 777.12 75.74 781.85 48.97 857.92 48.97 853.19 75.74 844.56 124.71 839.92 151.04 831.28 200 883.57 200 1008.27 200 1016.91 151.04 892.74 151.04 892.21 151.04 896.85 124.71 897.38 124.71 988.03 124.71 996.67 75.74 906.01 75.74 905.48 75.74 910.21 48.97 910.74 48.97"/></svg>